<svg xmlns="http://www.w3.org/2000/svg" class="IndustryServices_cardVisual___CxAC" viewBox="0 0 220 220" aria-hidden="true" focusable="false"><defs><linearGradient id="phone-health" x1="0" x2="1" y1="0" y2="1"><stop stop-color="var(--accent)" stop-opacity=".35"></stop><stop offset="1" stop-color="#090b13"></stop></linearGradient></defs><g transform="rotate(-5 133 115)"><rect x="78" y="17" width="112" height="190" rx="23" fill="#05070a" stroke="#394050" stroke-width="3"></rect><rect x="85" y="25" width="98" height="174" rx="18" fill="url(#phone-health)"></rect><rect x="119" y="31" width="36" height="6" rx="3" fill="#080a0c"></rect><g><circle cx="134" cy="87" r="27" fill="var(--accent)" fill-opacity=".24"></circle><circle cx="134" cy="79" r="10" fill="#8fc7ff"></circle><path d="M116 106c2-13 10-19 18-19s16 6 18 19" fill="#538ee5"></path><path d="M95 127h75" stroke="var(--accent)" stroke-opacity=".6" stroke-width="5" stroke-linecap="round"></path><path d="M95 143h58" stroke="#7690ad" stroke-opacity=".45" stroke-width="5" stroke-linecap="round"></path></g></g><g><rect x="16" y="108" width="61" height="51" rx="12" fill="#111621" stroke="var(--accent)" stroke-opacity=".6"></rect><circle cx="46" cy="133" r="16" fill="var(--accent)" fill-opacity=".18"></circle><path d="M45 121h4v8h8v4h-8v8h-4v-8h-8v-4h8z" fill="var(--accent)"></path></g></svg>