<svg xmlns="http://www.w3.org/2000/svg" class="IndustryServices_cardVisual___CxAC" viewBox="0 0 220 220" aria-hidden="true" focusable="false"><defs><linearGradient id="phone-ai" x1="0" x2="1" y1="0" y2="1"><stop stop-color="var(--accent)" stop-opacity=".35"></stop><stop offset="1" stop-color="#090b13"></stop></linearGradient></defs><g transform="rotate(-5 133 115)"><rect x="78" y="17" width="112" height="190" rx="23" fill="#05070a" stroke="#394050" stroke-width="3"></rect><rect x="85" y="25" width="98" height="174" rx="18" fill="url(#phone-ai)"></rect><rect x="119" y="31" width="36" height="6" rx="3" fill="#080a0c"></rect><g><rect x="98" y="53" width="72" height="44" rx="10" fill="var(--accent)" fill-opacity=".2"></rect><path d="M108 83V69l11-8 11 8v14h-8V73h-7v10z" fill="var(--accent)"></path><text x="137" y="69" fill="#fff" font-size="7">AI ASSIST</text><rect x="97" y="109" width="74" height="43" rx="9" fill="#10182a" stroke="var(--accent)" stroke-opacity=".45"></rect><circle cx="134" cy="127" r="12" fill="#657dff"></circle><circle cx="130" cy="125" r="2" fill="white"></circle><circle cx="138" cy="125" r="2" fill="white"></circle><path d="M130 131q4 4 8 0" fill="none" stroke="white" stroke-width="1.5"></path><rect x="106" y="160" width="57" height="5" rx="2" fill="#868da3"></rect></g></g></svg>