<svg xmlns="http://www.w3.org/2000/svg" class="CaseStudySection_mountain__h0ao3" viewBox="0 0 1000 350" preserveAspectRatio="none" aria-hidden="true"><defs><linearGradient id="rock-fill" x1="0" x2="0.7" y1="0" y2="1"><stop stop-color="#27243c"></stop><stop offset=".3" stop-color="#11111e"></stop><stop offset="1" stop-color="#05060b"></stop></linearGradient><linearGradient id="rock-edge" x1="0" x2="1" y1="0" y2="0"><stop stop-color="#22123f"></stop><stop offset=".48" stop-color="#9b4cff"></stop><stop offset="1" stop-color="#52269d"></stop></linearGradient><filter id="mountain-glow" x="-20%" y="-40%" width="140%" height="180%"><fegaussianblur stddeviation="7" result="blur"></fegaussianblur><femerge><femergenode in="blur"></femergenode><femergenode in="SourceGraphic"></femergenode></femerge></filter></defs><path d="M0 250 54 237l41 21 65-91 38 17 45-67 35 42 44-27 34 41 50-19 39 40 47-22 49 35 41-14 48 21 49-36 46 22 37-52 49 23 35-61 44 29 40-15 56 55 42-6v146H0z" fill="url(#rock-fill)"></path><path d="m0 251 54-14 41 21 65-91 38 17 45-67 35 42 44-27 34 41 50-19 39 40 47-22 49 35 41-14 48 21 49-36 46 22 37-52 49 23 35-61 44 29 40-15 56 55 42-6" fill="none" stroke="url(#rock-edge)" stroke-width="3" filter="url(#mountain-glow)" opacity=".88"></path><path d="m92 272 69-81 22 9-46 77m147-132 39 39-31 22-22-27m234 54 42 31-37 18-48-35m302 39 46-52 22 14-28 57m114-99 34 23-30 25" fill="none" stroke="#aa75ff" stroke-opacity=".48" stroke-width="2"></path><path d="M0 311q130-32 248 8t250-2q147-32 251 0t251-4" fill="none" stroke="#401b74" stroke-width="15" opacity=".22"></path></svg>